<svg width="115" height="115" viewBox="0 0 115 115" fill="none" xmlns="http://www.w3.org/2000/svg">
    <g filter="url(#filter0_d_0_1)">
        <path d="M57.5 110C86.4949 110 110 86.4949 110 57.5C110 28.5051 86.4949 5 57.5 5C28.5051 5 5 28.5051 5 57.5C5 86.4949 28.5051 110 57.5 110Z" fill="white"/>
    </g>
    <path d="M86.7994 90.6813L20 91.4189L31.8377 27.1989L78.9073 29.8389L86.7994 90.6813Z" fill="#8BC6FF"/>
    <path d="M92.9999 94H30.6162L30.9667 91.2982L86.7993 90.6814L79.1813 31.9523L86.7993 31.1502L92.9999 94Z" fill="#0051FF" fill-opacity="0.6"/>
    <path d="M30.967 91.2988L38.1042 36.2756L79.1816 31.9529L86.7996 90.6821L30.967 91.2988Z" fill="#0051FF" fill-opacity="0.6"/>
    <path d="M71.4348 25.4678H67.4434C67.4434 20.7524 63.5346 16.9168 58.7289 16.9168C53.924 16.9168 50.0144 20.7524 50.0144 25.4678H46.0229C46.0229 18.5933 51.7229 13 58.7289 13C65.7348 13 71.4348 18.5933 71.4348 25.4678Z" fill="#5982DA"/>
    <defs>
        <filter id="filter0_d_0_1" x="0" y="0" width="115" height="115" filterUnits="userSpaceOnUse" color-interpolation-filters="sRGB">
            <feFlood flood-opacity="0" result="BackgroundImageFix"/>
            <feColorMatrix in="SourceAlpha" type="matrix" values="0 0 0 0 0 0 0 0 0 0 0 0 0 0 0 0 0 0 127 0" result="hardAlpha"/>
            <feOffset/>
            <feGaussianBlur stdDeviation="2.5"/>
            <feColorMatrix type="matrix" values="0 0 0 0 0 0 0 0 0 0 0 0 0 0 0 0 0 0 0.160784 0"/>
            <feBlend mode="normal" in2="BackgroundImageFix" result="effect1_dropShadow_0_1"/>
            <feBlend mode="normal" in="SourceGraphic" in2="effect1_dropShadow_0_1" result="shape"/>
        </filter>
    </defs>
</svg>
